<?xml version="1.0" encoding="UTF-8" standalone="no"?>
<svg width="170px" height="113px" viewBox="0 0 170 113" version="1.1" xmlns="http://www.w3.org/2000/svg" xmlns:xlink="http://www.w3.org/1999/xlink">
    <!-- Generator: Sketch 43.1 (39012) - http://www.bohemiancoding.com/sketch -->
    <title>Group 2</title>
    <desc>Created with Sketch.</desc>
    <defs>
        <path d="M-3.55271368e-14,3.99429348 C-3.55271368e-14,1.7883061 1.78646523,-4.19220214e-13 4.00595973,-4.19220214e-13 L101.469325,-4.19220214e-13 C103.681756,-4.19220214e-13 105.475285,1.79025258 105.475285,3.99429348 L105.475285,66.992886 C105.475285,69.1988734 103.68882,70.9871795 101.469325,70.9871795 L4.00595973,70.9871795 C1.79352926,70.9871795 -3.55271368e-14,69.1969269 -3.55271368e-14,66.992886 L-3.55271368e-14,3.99429348 Z M9.39163498,2.8974359 L9.39163498,68.0897436 L96.0836502,68.0897436 L96.0836502,2.8974359 L9.39163498,2.8974359 Z" id="path-1"></path>
        <path d="M0,3.9922861 C0,1.78740737 1.78476457,0 3.99791472,0 L26.3442906,0 C28.5522779,0 30.3422053,1.78805753 30.3422053,3.9922861 L30.3422053,56.8538678 C30.3422053,59.0587465 28.5574408,60.8461538 26.3442906,60.8461538 L3.99791472,60.8461538 C1.78992739,60.8461538 0,59.0580963 0,56.8538678 L0,3.9922861 Z M3.16730038,6.51923077 L3.16730038,52.8782051 L27.1773006,52.8782051 L27.1773006,6.51923077 L3.16730038,6.51923077 Z" id="path-2"></path>
        <path d="M0,0.99939573 C0,0.447444709 0.453908181,0 0.994711797,0 L27.9026266,0 C28.4519908,0 28.8973384,0.447297147 28.8973384,0.99939573 L28.8973384,52.6031684 C28.8973384,53.1551194 28.4434302,53.6025641 27.9026266,53.6025641 L0.994711797,53.6025641 C0.445347641,53.6025641 0,53.155267 0,52.6031684 L0,0.99939573 Z M2.16730038,4.34615385 L2.16730038,48.1296296 L26.730038,48.1296296 L26.730038,4.34615385 L2.16730038,4.34615385 Z" id="path-3"></path>
    </defs>
    <g id="Symbols" stroke="none" stroke-width="1" fill="none" fill-rule="evenodd">
        <g id="Illustration---iOS-Android-Apps" transform="translate(-22.000000, 0.000000)">
            <g id="Icon---iOS/Android-Apps">
                <g id="Group-2" transform="translate(22.000000, 0.000000)">
                    <g id="Android-Tablet" transform="translate(63.969582, 24.628205)" stroke="#979797">
                        <path d="M14.7262357,-5.77270779 C14.7262357,-10.1855252 18.3170377,-13.7628205 22.7226751,-13.7628205 L83.3077431,-13.7628205 C87.7240546,-13.7628205 91.3041825,-10.1723136 91.3041825,-5.77270779 L91.3041825,82.5547591 C91.3041825,86.9675765 87.7133805,90.5448718 83.3077431,90.5448718 L22.7226751,90.5448718 C18.3063636,90.5448718 14.7262357,86.9543649 14.7262357,82.5547591 L14.7262357,-5.77270779 Z M23.9372624,-9.92567568 L23.9372624,87.1079734 L82.0931559,87.1079734 L82.0931559,-9.92567568 L23.9372624,-9.92567568 Z" id="Combined-Shape" fill="#D8D8D8" transform="translate(53.015209, 38.391026) rotate(-270.000000) translate(-53.015209, -38.391026) "></path>
                        <ellipse id="Oval-4" transform="translate(52.516172, 4.847117) rotate(-270.000000) translate(-52.516172, -4.847117) " cx="52.3773886" cy="4.70929609" rx="1" ry="1"></ellipse>
                    </g>
                    <g id="iPad" transform="translate(45.470289, 53.140563) scale(-1, 1) rotate(-270.000000) translate(-45.470289, -53.140563) translate(-7.529711, 17.640563)">
                        <g id="Combined-Shape">
                            <use fill="#D8D8D8" fill-rule="evenodd" xlink:href="#path-1"></use>
                            <path stroke="#979797" stroke-width="1" d="M0.5,3.99429348 C0.5,2.0622031 2.06485748,0.5 4.00595973,0.5 L101.469325,0.5 C103.405228,0.5 104.975285,2.06601188 104.975285,3.99429348 L104.975285,66.992886 C104.975285,68.9249764 103.410428,70.4871795 101.469325,70.4871795 L4.00595973,70.4871795 C2.07005728,70.4871795 0.5,68.9211676 0.5,66.992886 L0.5,3.99429348 Z M8.89163498,2.8974359 L8.89163498,68.0897436 L8.89163498,68.5897436 L9.39163498,68.5897436 L96.0836502,68.5897436 L96.5836502,68.5897436 L96.5836502,68.0897436 L96.5836502,2.8974359 L96.5836502,2.3974359 L96.0836502,2.3974359 L9.39163498,2.3974359 L8.89163498,2.3974359 L8.89163498,2.8974359 Z"></path>
                        </g>
                        <rect id="Rectangle-11" fill="#FFFFFF" x="9.39163498" y="2.8974359" width="86.6920152" height="65.1923077"></rect>
                        <ellipse id="Oval-4" stroke="#979797" transform="translate(100.779468, 35.855769) rotate(-270.000000) translate(-100.779468, -35.855769) " cx="100.779468" cy="35.8557692" rx="2.52851711" ry="2.53525641"></ellipse>
                        <ellipse id="Oval-4" stroke="#979797" transform="translate(4.557997, 35.270194) rotate(-270.000000) translate(-4.557997, -35.270194) " cx="4.41921371" cy="35.132373" rx="1" ry="1"></ellipse>
                    </g>
                    <rect id="Rectangle-7" fill="#FFFFFF" x="0.673003802" y="52.1538462" width="30.3422053" height="60.8461538" rx="4"></rect>
                    <g id="iPhone" transform="translate(0.673004, 52.153846)">
                        <g id="Combined-Shape">
                            <use fill-opacity="0.1" fill="#0063AE" fill-rule="evenodd" xlink:href="#path-2"></use>
                            <path stroke="#0063AE" stroke-width="1" d="M0.5,3.9922861 C0.5,2.0618254 2.06263225,0.5 3.99791472,0.5 L26.3442906,0.5 C28.2760557,0.5 29.8422053,2.06412057 29.8422053,3.9922861 L29.8422053,56.8538678 C29.8422053,58.7843284 28.2795731,60.3461538 26.3442906,60.3461538 L3.99791472,60.3461538 C2.06614961,60.3461538 0.5,58.7820333 0.5,56.8538678 L0.5,3.9922861 Z M2.66730038,6.51923077 L2.66730038,52.8782051 L2.66730038,53.3782051 L3.16730038,53.3782051 L27.1773006,53.3782051 L27.6773006,53.3782051 L27.6773006,52.8782051 L27.6773006,6.51923077 L27.6773006,6.01923077 L27.1773006,6.01923077 L3.16730038,6.01923077 L2.66730038,6.01923077 L2.66730038,6.51923077 Z"></path>
                        </g>
                        <rect id="Rectangle-10" fill="#FFFFFF" x="3.08365019" y="6.51923077" width="24.1749049" height="46.3589744"></rect>
                        <ellipse id="Oval-4" stroke="#0063AE" cx="15.5323194" cy="56.8621795" rx="2.02851711" ry="2.03525641"></ellipse>
                        <ellipse id="Oval-4" stroke="#0063AE" cx="14.8098859" cy="3.25961538" rx="1" ry="1"></ellipse>
                    </g>
                    <g id="Android-Phone" transform="translate(98.201521, 59.397436)">
                        <g id="Combined-Shape">
                            <use fill="#D8D8D8" fill-rule="evenodd" xlink:href="#path-3"></use>
                            <path stroke="#979797" stroke-width="1" d="M0.5,0.99939573 C0.5,0.726677697 0.726956498,0.5 0.994711797,0.5 L27.9026266,0.5 C28.1753834,0.5 28.3973384,0.722977396 28.3973384,0.99939573 L28.3973384,52.6031684 C28.3973384,52.8758864 28.1703819,53.1025641 27.9026266,53.1025641 L0.994711797,53.1025641 C0.72195499,53.1025641 0.5,52.8795867 0.5,52.6031684 L0.5,0.99939573 Z M1.66730038,4.34615385 L1.66730038,48.1296296 L1.66730038,48.6296296 L2.16730038,48.6296296 L26.730038,48.6296296 L27.230038,48.6296296 L27.230038,48.1296296 L27.230038,4.34615385 L27.230038,3.84615385 L26.730038,3.84615385 L2.16730038,3.84615385 L1.66730038,3.84615385 L1.66730038,4.34615385 Z"></path>
                        </g>
                        <rect id="Rectangle-12" fill="#FFFFFF" x="2.16730038" y="4.34615385" width="24.5627376" height="43.4615385"></rect>
                        <ellipse id="Oval-4" stroke="#979797" transform="translate(10.698681, 2.311860) rotate(-270.000000) translate(-10.698681, -2.311860) " cx="10.5598981" cy="2.17403968" rx="1" ry="1"></ellipse>
                        <path d="M12.6425856,2.17307692 L16.2547529,2.17307692" id="Line" stroke="#979797" stroke-linecap="round"></path>
                    </g>
                </g>
            </g>
        </g>
    </g>
</svg>