<?xml version="1.0" encoding="UTF-8" standalone="no"?>
<svg width="118px" height="138px" viewBox="0 0 118 138" version="1.1" xmlns="http://www.w3.org/2000/svg" xmlns:xlink="http://www.w3.org/1999/xlink">
    <!-- Generator: Sketch 43.1 (39012) - http://www.bohemiancoding.com/sketch -->
    <title>Group 2</title>
    <desc>Created with Sketch.</desc>
    <defs>
        <rect id="path-1" x="0" y="11" width="12" height="123"></rect>
        <rect id="path-2" x="11" y="0" width="103" height="12"></rect>
        <rect id="path-3" x="11" y="71" width="22" height="22"></rect>
        <mask id="mask-4" maskContentUnits="userSpaceOnUse" maskUnits="objectBoundingBox" x="0" y="0" width="22" height="22" fill="white">
            <use xlink:href="#path-3"></use>
        </mask>
        <rect id="path-5" x="11" y="98" width="22" height="22"></rect>
        <mask id="mask-6" maskContentUnits="userSpaceOnUse" maskUnits="objectBoundingBox" x="0" y="0" width="22" height="22" fill="white">
            <use xlink:href="#path-5"></use>
        </mask>
        <rect id="path-7" x="38" y="71" width="22" height="22"></rect>
        <mask id="mask-8" maskContentUnits="userSpaceOnUse" maskUnits="objectBoundingBox" x="0" y="0" width="22" height="22" fill="white">
            <use xlink:href="#path-7"></use>
        </mask>
        <rect id="path-9" x="38" y="98" width="22" height="22"></rect>
        <mask id="mask-10" maskContentUnits="userSpaceOnUse" maskUnits="objectBoundingBox" x="0" y="0" width="22" height="22" fill="white">
            <use xlink:href="#path-9"></use>
        </mask>
        <rect id="path-11" x="65" y="71" width="22" height="22"></rect>
        <mask id="mask-12" maskContentUnits="userSpaceOnUse" maskUnits="objectBoundingBox" x="0" y="0" width="22" height="22" fill="white">
            <use xlink:href="#path-11"></use>
        </mask>
        <rect id="path-13" x="65" y="98" width="22" height="22"></rect>
        <mask id="mask-14" maskContentUnits="userSpaceOnUse" maskUnits="objectBoundingBox" x="0" y="0" width="22" height="22" fill="white">
            <use xlink:href="#path-13"></use>
        </mask>
        <rect id="path-15" x="0" y="0" width="100" height="9"></rect>
        <rect id="path-16" x="0" y="8" width="100" height="22"></rect>
        <mask id="mask-17" maskContentUnits="userSpaceOnUse" maskUnits="objectBoundingBox" x="0" y="0" width="100" height="22" fill="white">
            <use xlink:href="#path-16"></use>
        </mask>
        <circle id="path-18" cx="21" cy="29" r="10"></circle>
        <mask id="mask-19" maskContentUnits="userSpaceOnUse" maskUnits="objectBoundingBox" x="0" y="0" width="20" height="20" fill="white">
            <use xlink:href="#path-18"></use>
        </mask>
        <rect id="path-20" x="83" y="89" width="22" height="22"></rect>
        <rect id="path-21" x="0" y="0" width="12" height="12"></rect>
    </defs>
    <g id="Symbols" stroke="none" stroke-width="1" fill="none" fill-rule="evenodd">
        <g id="Illustration---UI-UX">
            <g id="Group-2">
                <g id="Icon---UI/UX">
                    <g id="Rectangle-13">
                        <use fill-opacity="0.1" fill="#0063AE" fill-rule="evenodd" xlink:href="#path-1"></use>
                        <rect stroke="#0063AE" stroke-width="1" x="0.5" y="11.5" width="11" height="122"></rect>
                    </g>
                    <g id="Group-5-Copy" transform="translate(9.000000, 72.500000) scale(-1, 1) rotate(-270.000000) translate(-9.000000, -72.500000) translate(-49.500000, 70.500000)" stroke="#0063AE" stroke-linecap="square">
                        <path d="M13.5,3.5 L13.5,0.5" id="Line" transform="translate(13.500000, 2.000000) scale(-1, 1) translate(-13.500000, -2.000000) "></path>
                        <path d="M10,4 L10,3" id="Line-Copy-7" transform="translate(10.000000, 3.500000) scale(-1, 1) translate(-10.000000, -3.500000) "></path>
                        <path d="M7,4 L7,3" id="Line-Copy-8" transform="translate(7.000000, 3.500000) scale(-1, 1) translate(-7.000000, -3.500000) "></path>
                        <path d="M4,4 L4,3" id="Line-Copy-8" transform="translate(4.000000, 3.500000) scale(-1, 1) translate(-4.000000, -3.500000) "></path>
                        <path d="M1,4 L1,3" id="Line-Copy-8" transform="translate(1.000000, 3.500000) scale(-1, 1) translate(-1.000000, -3.500000) "></path>
                        <path d="M29.5,3.5 L29.5,0.5" id="Line" transform="translate(29.500000, 2.000000) scale(-1, 1) translate(-29.500000, -2.000000) "></path>
                        <path d="M26,4 L26,3" id="Line-Copy-7" transform="translate(26.000000, 3.500000) scale(-1, 1) translate(-26.000000, -3.500000) "></path>
                        <path d="M23,4 L23,3" id="Line-Copy-8" transform="translate(23.000000, 3.500000) scale(-1, 1) translate(-23.000000, -3.500000) "></path>
                        <path d="M20,4 L20,3" id="Line-Copy-8" transform="translate(20.000000, 3.500000) scale(-1, 1) translate(-20.000000, -3.500000) "></path>
                        <path d="M17,4 L17,3" id="Line-Copy-8" transform="translate(17.000000, 3.500000) scale(-1, 1) translate(-17.000000, -3.500000) "></path>
                        <path d="M45.5,3.5 L45.5,0.5" id="Line" transform="translate(45.500000, 2.000000) scale(-1, 1) translate(-45.500000, -2.000000) "></path>
                        <path d="M42,4 L42,3" id="Line-Copy-7" transform="translate(42.000000, 3.500000) scale(-1, 1) translate(-42.000000, -3.500000) "></path>
                        <path d="M39,4 L39,3" id="Line-Copy-8" transform="translate(39.000000, 3.500000) scale(-1, 1) translate(-39.000000, -3.500000) "></path>
                        <path d="M36,4 L36,3" id="Line-Copy-8" transform="translate(36.000000, 3.500000) scale(-1, 1) translate(-36.000000, -3.500000) "></path>
                        <path d="M33,4 L33,3" id="Line-Copy-8" transform="translate(33.000000, 3.500000) scale(-1, 1) translate(-33.000000, -3.500000) "></path>
                        <path d="M61.5,3.5 L61.5,0.5" id="Line" transform="translate(61.500000, 2.000000) scale(-1, 1) translate(-61.500000, -2.000000) "></path>
                        <path d="M58,4 L58,3" id="Line-Copy-7" transform="translate(58.000000, 3.500000) scale(-1, 1) translate(-58.000000, -3.500000) "></path>
                        <path d="M55,4 L55,3" id="Line-Copy-8" transform="translate(55.000000, 3.500000) scale(-1, 1) translate(-55.000000, -3.500000) "></path>
                        <path d="M52,4 L52,3" id="Line-Copy-8" transform="translate(52.000000, 3.500000) scale(-1, 1) translate(-52.000000, -3.500000) "></path>
                        <path d="M49,4 L49,3" id="Line-Copy-8" transform="translate(49.000000, 3.500000) scale(-1, 1) translate(-49.000000, -3.500000) "></path>
                        <path d="M77.5,3.5 L77.5,0.5" id="Line" transform="translate(77.500000, 2.000000) scale(-1, 1) translate(-77.500000, -2.000000) "></path>
                        <path d="M74,4 L74,3" id="Line-Copy-7" transform="translate(74.000000, 3.500000) scale(-1, 1) translate(-74.000000, -3.500000) "></path>
                        <path d="M71,4 L71,3" id="Line-Copy-8" transform="translate(71.000000, 3.500000) scale(-1, 1) translate(-71.000000, -3.500000) "></path>
                        <path d="M68,4 L68,3" id="Line-Copy-8" transform="translate(68.000000, 3.500000) scale(-1, 1) translate(-68.000000, -3.500000) "></path>
                        <path d="M65,4 L65,3" id="Line-Copy-8" transform="translate(65.000000, 3.500000) scale(-1, 1) translate(-65.000000, -3.500000) "></path>
                        <path d="M93.5,3.5 L93.5,0.5" id="Line" transform="translate(93.500000, 2.000000) scale(-1, 1) translate(-93.500000, -2.000000) "></path>
                        <path d="M90,4 L90,3" id="Line-Copy-7" transform="translate(90.000000, 3.500000) scale(-1, 1) translate(-90.000000, -3.500000) "></path>
                        <path d="M87,4 L87,3" id="Line-Copy-8" transform="translate(87.000000, 3.500000) scale(-1, 1) translate(-87.000000, -3.500000) "></path>
                        <path d="M84,4 L84,3" id="Line-Copy-8" transform="translate(84.000000, 3.500000) scale(-1, 1) translate(-84.000000, -3.500000) "></path>
                        <path d="M81,4 L81,3" id="Line-Copy-8" transform="translate(81.000000, 3.500000) scale(-1, 1) translate(-81.000000, -3.500000) "></path>
                        <path d="M109.5,3.5 L109.5,0.5" id="Line-Copy-10" transform="translate(109.500000, 2.000000) scale(-1, 1) translate(-109.500000, -2.000000) "></path>
                        <path d="M106,4 L106,3" id="Line-Copy-11" transform="translate(106.000000, 3.500000) scale(-1, 1) translate(-106.000000, -3.500000) "></path>
                        <path d="M103,4 L103,3" id="Line-Copy-12" transform="translate(103.000000, 3.500000) scale(-1, 1) translate(-103.000000, -3.500000) "></path>
                        <path d="M100,4 L100,3" id="Line-Copy-13" transform="translate(100.000000, 3.500000) scale(-1, 1) translate(-100.000000, -3.500000) "></path>
                        <path d="M97,4 L97,3" id="Line-Copy-14" transform="translate(97.000000, 3.500000) scale(-1, 1) translate(-97.000000, -3.500000) "></path>
                        <path d="M113,4 L113,3" id="Line-Copy-15" transform="translate(113.000000, 3.500000) scale(-1, 1) translate(-113.000000, -3.500000) "></path>
                        <path d="M116,4 L116,3" id="Line-Copy-15" transform="translate(116.000000, 3.500000) scale(-1, 1) translate(-116.000000, -3.500000) "></path>
                    </g>
                    <g id="Rectangle-14">
                        <use fill-opacity="0.1" fill="#0063AE" fill-rule="evenodd" xlink:href="#path-2"></use>
                        <rect stroke="#0063AE" stroke-width="1" x="11.5" y="0.5" width="102" height="11"></rect>
                    </g>
                    <g id="Group-5" transform="translate(14.000000, 7.000000)" stroke="#0063AE" stroke-linecap="square">
                        <path d="M13.5,3.5 L13.5,0.5" id="Line" transform="translate(13.500000, 2.000000) scale(-1, 1) translate(-13.500000, -2.000000) "></path>
                        <path d="M10,4 L10,3" id="Line-Copy-7" transform="translate(10.000000, 3.500000) scale(-1, 1) translate(-10.000000, -3.500000) "></path>
                        <path d="M7,4 L7,3" id="Line-Copy-8" transform="translate(7.000000, 3.500000) scale(-1, 1) translate(-7.000000, -3.500000) "></path>
                        <path d="M4,4 L4,3" id="Line-Copy-8" transform="translate(4.000000, 3.500000) scale(-1, 1) translate(-4.000000, -3.500000) "></path>
                        <path d="M1,4 L1,3" id="Line-Copy-8" transform="translate(1.000000, 3.500000) scale(-1, 1) translate(-1.000000, -3.500000) "></path>
                        <path d="M29.5,3.5 L29.5,0.5" id="Line" transform="translate(29.500000, 2.000000) scale(-1, 1) translate(-29.500000, -2.000000) "></path>
                        <path d="M26,4 L26,3" id="Line-Copy-7" transform="translate(26.000000, 3.500000) scale(-1, 1) translate(-26.000000, -3.500000) "></path>
                        <path d="M23,4 L23,3" id="Line-Copy-8" transform="translate(23.000000, 3.500000) scale(-1, 1) translate(-23.000000, -3.500000) "></path>
                        <path d="M20,4 L20,3" id="Line-Copy-8" transform="translate(20.000000, 3.500000) scale(-1, 1) translate(-20.000000, -3.500000) "></path>
                        <path d="M17,4 L17,3" id="Line-Copy-8" transform="translate(17.000000, 3.500000) scale(-1, 1) translate(-17.000000, -3.500000) "></path>
                        <path d="M45.5,3.5 L45.5,0.5" id="Line" transform="translate(45.500000, 2.000000) scale(-1, 1) translate(-45.500000, -2.000000) "></path>
                        <path d="M42,4 L42,3" id="Line-Copy-7" transform="translate(42.000000, 3.500000) scale(-1, 1) translate(-42.000000, -3.500000) "></path>
                        <path d="M39,4 L39,3" id="Line-Copy-8" transform="translate(39.000000, 3.500000) scale(-1, 1) translate(-39.000000, -3.500000) "></path>
                        <path d="M36,4 L36,3" id="Line-Copy-8" transform="translate(36.000000, 3.500000) scale(-1, 1) translate(-36.000000, -3.500000) "></path>
                        <path d="M33,4 L33,3" id="Line-Copy-8" transform="translate(33.000000, 3.500000) scale(-1, 1) translate(-33.000000, -3.500000) "></path>
                        <path d="M61.5,3.5 L61.5,0.5" id="Line" transform="translate(61.500000, 2.000000) scale(-1, 1) translate(-61.500000, -2.000000) "></path>
                        <path d="M58,4 L58,3" id="Line-Copy-7" transform="translate(58.000000, 3.500000) scale(-1, 1) translate(-58.000000, -3.500000) "></path>
                        <path d="M55,4 L55,3" id="Line-Copy-8" transform="translate(55.000000, 3.500000) scale(-1, 1) translate(-55.000000, -3.500000) "></path>
                        <path d="M52,4 L52,3" id="Line-Copy-8" transform="translate(52.000000, 3.500000) scale(-1, 1) translate(-52.000000, -3.500000) "></path>
                        <path d="M49,4 L49,3" id="Line-Copy-8" transform="translate(49.000000, 3.500000) scale(-1, 1) translate(-49.000000, -3.500000) "></path>
                        <path d="M77.5,3.5 L77.5,0.5" id="Line" transform="translate(77.500000, 2.000000) scale(-1, 1) translate(-77.500000, -2.000000) "></path>
                        <path d="M74,4 L74,3" id="Line-Copy-7" transform="translate(74.000000, 3.500000) scale(-1, 1) translate(-74.000000, -3.500000) "></path>
                        <path d="M71,4 L71,3" id="Line-Copy-8" transform="translate(71.000000, 3.500000) scale(-1, 1) translate(-71.000000, -3.500000) "></path>
                        <path d="M68,4 L68,3" id="Line-Copy-8" transform="translate(68.000000, 3.500000) scale(-1, 1) translate(-68.000000, -3.500000) "></path>
                        <path d="M65,4 L65,3" id="Line-Copy-8" transform="translate(65.000000, 3.500000) scale(-1, 1) translate(-65.000000, -3.500000) "></path>
                        <path d="M93.5,3.5 L93.5,0.5" id="Line" transform="translate(93.500000, 2.000000) scale(-1, 1) translate(-93.500000, -2.000000) "></path>
                        <path d="M90,4 L90,3" id="Line-Copy-7" transform="translate(90.000000, 3.500000) scale(-1, 1) translate(-90.000000, -3.500000) "></path>
                        <path d="M97,4 L97,3" id="Line-Copy-9" transform="translate(97.000000, 3.500000) scale(-1, 1) translate(-97.000000, -3.500000) "></path>
                        <path d="M87,4 L87,3" id="Line-Copy-8" transform="translate(87.000000, 3.500000) scale(-1, 1) translate(-87.000000, -3.500000) "></path>
                        <path d="M84,4 L84,3" id="Line-Copy-8" transform="translate(84.000000, 3.500000) scale(-1, 1) translate(-84.000000, -3.500000) "></path>
                        <path d="M81,4 L81,3" id="Line-Copy-8" transform="translate(81.000000, 3.500000) scale(-1, 1) translate(-81.000000, -3.500000) "></path>
                    </g>
                    <g id="Group-6" transform="translate(18.000000, 18.000000)">
                        <rect id="Rectangle-3" stroke="#979797" x="0.5" y="0.5" width="99" height="119"></rect>
                        <use id="Rectangle-5-Copy-3" stroke="#979797" mask="url(#mask-4)" stroke-width="2" fill-opacity="0.1" fill="#979797" stroke-dasharray="2" xlink:href="#path-3"></use>
                        <use id="Rectangle-5-Copy-6" stroke="#979797" mask="url(#mask-6)" stroke-width="2" fill-opacity="0.1" fill="#979797" stroke-dasharray="2" xlink:href="#path-5"></use>
                        <use id="Rectangle-5-Copy-4" stroke="#979797" mask="url(#mask-8)" stroke-width="2" fill-opacity="0.1" fill="#979797" stroke-dasharray="2" xlink:href="#path-7"></use>
                        <use id="Rectangle-5-Copy-7" stroke="#979797" mask="url(#mask-10)" stroke-width="2" fill-opacity="0.1" fill="#979797" stroke-dasharray="2" xlink:href="#path-9"></use>
                        <use id="Rectangle-5-Copy-5" stroke="#979797" mask="url(#mask-12)" stroke-width="2" fill-opacity="0.1" fill="#979797" stroke-dasharray="2" xlink:href="#path-11"></use>
                        <use id="Rectangle-5-Copy-8" stroke="#979797" mask="url(#mask-14)" stroke-width="2" fill-opacity="0.1" fill="#979797" stroke-dasharray="2" xlink:href="#path-13"></use>
                        <g id="Group-3" transform="translate(11.000000, 49.000000)" stroke="#979797" stroke-linecap="square" stroke-dasharray="2">
                            <path d="M0,1.2 L41.6666667,1.2" id="Line-Copy"></path>
                            <path d="M-3.55271368e-15,10.8 L40,10.8" id="Line-Copy-4"></path>
                            <path d="M-7.10542736e-15,6 L38.3333333,6" id="Line-Copy-2"></path>
                        </g>
                        <g id="Rectangle-16">
                            <use fill-opacity="0.1" fill="#979797" fill-rule="evenodd" xlink:href="#path-15"></use>
                            <rect stroke="#979797" stroke-width="1" x="0.5" y="0.5" width="99" height="8"></rect>
                        </g>
                        <use id="Rectangle-16-Copy" stroke="#979797" mask="url(#mask-17)" stroke-width="2" fill-opacity="0.1" fill="#979797" stroke-dasharray="2" xlink:href="#path-16"></use>
                        <use id="Oval-5" stroke="#979797" mask="url(#mask-19)" stroke-width="2" fill="#FFFFFF" stroke-linejoin="bevel" stroke-dasharray="2" xlink:href="#path-18"></use>
                    </g>
                    <rect id="Rectangle-5-Copy-5" fill="#FFFFFF" x="83" y="89" width="22" height="22"></rect>
                    <g id="Rectangle-5-Copy-5">
                        <use fill-opacity="0.1" fill="#0063AE" fill-rule="evenodd" xlink:href="#path-20"></use>
                        <rect stroke="#0063AE" stroke-width="1" x="83.5" y="89.5" width="21" height="21"></rect>
                    </g>
                    <g id="Rectangle-15">
                        <use fill-opacity="0.1" fill="#0063AE" fill-rule="evenodd" xlink:href="#path-21"></use>
                        <rect stroke="#0063AE" stroke-width="1" x="0.5" y="0.5" width="11" height="11"></rect>
                    </g>
                </g>
            </g>
        </g>
    </g>
</svg>