<?xml version="1.0" encoding="UTF-8" standalone="no"?>
<svg width="161px" height="34px" viewBox="0 0 161 34" version="1.1" xmlns="http://www.w3.org/2000/svg" xmlns:xlink="http://www.w3.org/1999/xlink">
    <!-- Generator: Sketch 43.1 (39012) - http://www.bohemiancoding.com/sketch -->
    <title>Logo - Dark</title>
    <desc>Created with Sketch.</desc>
    <defs></defs>
    <g id="Home" stroke="none" stroke-width="1" fill="none" fill-rule="evenodd">
        <g id="Home-Mobile_Portrait" transform="translate(-15.000000, -15.000000)">
            <g id="Logo---Light" transform="translate(15.000000, 15.000000)">
                <g id="Logo" transform="translate(19.881818, 16.807692) scale(-1, 1) translate(-19.881818, -16.807692) ">
                    <path d="M3.59667447,0.648549827 C1.32489464,4.01620572 0,8.06609394 0,12.4230769 C0,24.1272653 9.56075566,33.6153846 21.3545455,33.6153846 C28.9483374,33.6153846 35.6163532,29.6817795 39.4025207,23.7557805 C38.8168171,23.5125464 38.2334842,23.264809 37.6525659,23.0126121 C34.425372,27.2346957 29.3153862,29.9615385 23.5636364,29.9615385 C13.8032586,29.9615385 5.89090909,22.1093018 5.89090909,12.4230769 C5.89090909,9.54251577 6.59067144,6.82415117 7.83070011,4.42626741 C6.38912232,3.20016763 4.97737174,1.94052274 3.59667447,0.648549827 Z" id="Combined-Shape" fill="#0063AE"></path>
                    <path d="M7.83070011,4.42626741 C6.59067144,6.82415117 5.89090909,9.54251577 5.89090909,12.4230769 C5.89090909,22.1093018 13.8032586,29.9615385 23.5636364,29.9615385 C29.3153862,29.9615385 34.425372,27.2346957 37.6525639,23.0126115 C37.2369844,22.8321937 36.8226387,22.6494929 36.4095448,22.4645258 C34.665193,24.7965094 31.8695163,26.3076923 28.7181818,26.3076923 C23.4313105,26.3076923 19.1454545,22.0543974 19.1454545,16.8076923 C19.1454545,15.5969849 19.3736688,14.4391748 19.7897352,13.3743173 C15.6123327,10.6379964 11.6185573,7.64793933 7.83069761,4.42626524 Z" id="Combined-Shape" fill="#000000"></path>
                    <path d="M19.7897352,13.3743173 C19.3736688,14.4391748 19.1454545,15.5969849 19.1454545,16.8076923 C19.1454545,22.0543974 23.4313105,26.3076923 28.7181818,26.3076923 C31.8695163,26.3076923 34.665193,24.7965094 36.4095448,22.4645258 C30.6078271,19.8667463 25.0530308,16.8219298 19.7897352,13.3743173 Z" id="Combined-Shape" fill="#FFFFFF"></path>
                </g>
                <g id="Group" transform="translate(54.490909, 10.961538)" fill="#FFFFFF">
                    <path d="M58.5018818,5.59623077 L56.5490455,5.59623077 L56.5490455,18.2692308 L58.5018818,18.2692308 L58.5018818,5.59623077 Z M71.4235909,9.16823077 L71.4235909,8.78823077 C71.4235909,7.81923077 71.2512818,7.13523077 70.8875182,6.60323077 C70.2748636,5.74823077 69.2793,5.48223077 66.7521,5.48223077 C64.4737909,5.48223077 63.5165182,5.65323077 62.7507,6.22323077 C62.0806091,6.71723077 61.7742818,7.64823077 61.7742818,9.11123077 C61.7742818,10.7832308 62.1954818,11.6762308 63.2101909,12.1702308 C63.8611364,12.4742308 64.1291727,12.5312308 66.4457727,12.6452308 C68.6666455,12.7782308 68.6666455,12.7782308 69.0112636,12.9112308 C69.5473364,13.1202308 69.7579364,13.5572308 69.7579364,14.5072308 C69.7579364,16.5212308 69.4324636,16.7682308 66.7329545,16.7682308 C64.5886636,16.7682308 64.2440455,16.6922308 63.9185727,16.1222308 C63.6888273,15.7232308 63.6313909,15.4382308 63.6313909,14.2982308 L61.7168455,14.2982308 C61.7359909,15.3432308 61.7551364,15.7042308 61.8700091,16.2742308 C62.0040273,16.9202308 62.4252273,17.5282308 62.9038636,17.8132308 C63.6888273,18.2692308 64.3972091,18.3832308 66.4074818,18.3832308 C68.8581,18.3832308 69.7770818,18.2502308 70.5237545,17.7942308 C71.3661545,17.2622308 71.6916273,16.3692308 71.6916273,14.5262308 C71.6916273,13.0062308 71.4235909,12.2272308 70.7152091,11.6952308 C70.1025545,11.2582308 69.3941727,11.1252308 67.1350091,11.0112308 C65.1438818,10.9162308 64.9715727,10.8972308 64.6078091,10.7642308 C63.9760091,10.5552308 63.7271182,10.0612308 63.7271182,9.05423077 C63.7271182,7.38223077 64.2249,7.07823077 66.8669727,7.07823077 C68.3986091,7.07823077 68.9538273,7.23023077 69.2601545,7.70523077 C69.4516091,8.00923077 69.5090455,8.31323077 69.5090455,9.16823077 L71.4235909,9.16823077 Z M76.8402818,5.59623077 L74.8874455,5.59623077 L74.8874455,18.2692308 L76.8402818,18.2692308 L76.8402818,5.59623077 Z M85.8946091,5.48223077 C84.7650273,5.48223077 83.7120273,5.53923077 83.2525364,5.63423077 C82.1803909,5.84323077 81.3954273,6.35623077 80.9359364,7.11623077 C80.3615727,8.06623077 80.2467,8.88323077 80.2467,11.9422308 C80.2467,14.3172308 80.2849909,14.8112308 80.4955909,15.7042308 C80.7444818,16.7872308 81.3188455,17.5282308 82.2378273,17.9272308 C83.0802273,18.2882308 83.8077545,18.3832308 85.9137545,18.3832308 C87.7517182,18.3832308 88.5366818,18.2882308 89.3599364,17.9462308 C90.2980636,17.5472308 90.9107182,16.7872308 91.1596091,15.6852308 C91.3510636,14.7542308 91.3893545,14.2412308 91.3893545,11.6952308 C91.3893545,10.0042308 91.3702091,9.41523077 91.2744818,8.84523077 C91.0447364,7.30623077 90.4320818,6.37523077 89.3216455,5.90023077 C88.5749727,5.57723077 87.7708636,5.48223077 85.8946091,5.48223077 Z M89.4173727,13.6712308 C89.4173727,14.9822308 89.1110455,15.9512308 88.5941182,16.3122308 C88.1537727,16.6352308 87.5794091,16.7112308 85.8371727,16.7112308 C84.3055364,16.7112308 83.7886091,16.6542308 83.3099727,16.4642308 C82.7547545,16.2552308 82.4484273,15.7612308 82.3144091,14.9442308 C82.2186818,14.2982308 82.2186818,14.2982308 82.2186818,11.9422308 C82.2186818,9.24423077 82.2378273,9.01623077 82.4484273,8.38923077 C82.8121909,7.36323077 83.3674091,7.15423077 85.6074273,7.15423077 C87.5219727,7.15423077 88.0580455,7.21123077 88.5366818,7.49623077 C89.1110455,7.83823077 89.4173727,8.75023077 89.4173727,10.1372308 L89.4173727,13.6712308 Z M106.187318,5.59623077 L104.234482,5.59623077 L104.234482,14.0132308 C104.234482,14.6022308 104.253627,15.4762308 104.272773,16.6162308 L104.215336,16.6162308 C102.875155,14.1082308 102.4731,13.3672308 102.013609,12.5692308 L98.0505,5.59623077 L94.7957727,5.59623077 L94.7957727,18.2692308 L96.7294636,18.2692308 L96.7294636,9.90923077 C96.7294636,9.28223077 96.7103182,8.40823077 96.6720273,7.26823077 L96.7486091,7.26823077 C96.9400636,7.64823077 97.1315182,8.02823077 97.3229727,8.38923077 C97.9356273,9.56723077 98.2802455,10.2322308 98.4334091,10.5172308 L102.913445,18.2692308 L106.187318,18.2692308 L106.187318,5.59623077 Z" id="ision"></path>
                    <path d="M3.48447273,3.51061538 L12.1794545,3.51061538 L12.1794545,0.722 L0.0913090909,0.722 L0.0913090909,18.2692308 L12.2589818,18.2692308 L12.2589818,15.4806154 L3.48447273,15.4806154 L3.48447273,10.5347692 L11.7288,10.5347692 L11.7288,8.06184615 L3.48447273,8.06184615 L3.48447273,3.51061538 Z M16.1175273,5.98353846 L16.1175273,18.2692308 L19.1660727,18.2692308 L19.1660727,10.982 C19.1660727,9.06153846 20.0673818,8.21969231 22.0820727,8.21969231 C23.9112,8.21969231 24.2823273,8.66692308 24.2823273,10.8767692 L24.2823273,18.2692308 L27.2778545,18.2692308 L27.2778545,9.90338462 C27.2778545,8.56169231 27.1718182,8.00923077 26.8537091,7.43046154 C26.244,6.37815385 24.9185455,5.82569231 22.9303636,5.82569231 C20.8626545,5.82569231 19.6697455,6.50969231 19.0865455,8.06184615 L19.0335273,8.06184615 L19.1395636,5.98353846 L16.1175273,5.98353846 Z M39.6458182,5.98353846 L34.9272,5.98353846 L34.9272,3.24753846 L31.9316727,3.24753846 L31.9316727,5.98353846 L30.3146182,5.98353846 L30.3146182,8.21969231 L31.9316727,8.21969231 L31.9316727,14.7966154 C31.9316727,15.9804615 31.9846909,16.4013846 32.2497818,16.9012308 C32.8064727,17.9798462 33.8403273,18.4270769 35.9080364,18.4270769 C37.8166909,18.4270769 38.8505455,18.0850769 39.4867636,17.2695385 C39.9904364,16.5855385 40.1494909,15.9541538 40.1494909,14.2441538 L40.1494909,13.5338462 L37.6311273,13.5338462 C37.6576364,13.7969231 37.6576364,13.9284615 37.6576364,14.0336923 C37.6576364,15.7173846 37.3660364,16.1383077 36.1996364,16.1383077 C35.1657818,16.1383077 34.9272,15.7963077 34.9272,14.3756923 L34.9272,8.21969231 L39.6458182,8.21969231 L39.6458182,5.98353846 Z M43.2392727,5.98353846 L43.2392727,18.2692308 L46.2348,18.2692308 L46.2348,11.0346154 C46.2348,10.0349231 46.2878182,9.64030769 46.4468727,9.24569231 C46.7649818,8.53538462 47.4542182,8.14076923 48.4085455,8.14076923 C49.6014545,8.14076923 49.9460727,8.56169231 49.9460727,10.0612308 C49.9460727,10.3769231 49.9460727,10.4558462 49.9195636,10.7452308 L52.7295273,10.7452308 L52.7295273,9.85076923 C52.7295273,8.16707692 52.5439636,7.37784615 51.9607636,6.72015385 C51.4570909,6.14138462 50.5557818,5.79938462 49.4689091,5.79938462 C47.7723273,5.79938462 46.8975273,6.29923077 46.1022545,7.71984615 L46.0492364,7.69353846 L46.2348,5.98353846 L43.2392727,5.98353846 Z" id="Entr"></path>
                </g>
            </g>
        </g>
    </g>
</svg>