<svg xmlns="http://www.w3.org/2000/svg" width="54" height="60" viewBox="0 0 54 60"><path fill="#0063AE" d="M23.4 1c1.1 0 2.1.1 3.2.2l.1-1c-1.3-.1-2.6-.2-4-.2v1h.7zM2.3 10.2c.9-1 1.8-1.9 2.8-2.7l-.6-.7c-1 .8-2 1.7-2.9 2.7l.7.7zm16.6-8.9l-.1-.9c-1.3.2-2.6.5-3.9.9l.3.9c1.2-.4 2.4-.7 3.7-.9zm15 1.7l.4-.9c-1.2-.5-2.5-.9-3.8-1.2l-.2.9c1.2.3 2.5.7 3.6 1.2zm-22.3.5l-.4-.9c-1.2.5-2.4 1.2-3.5 1.9l.5.8c1.1-.7 2.2-1.3 3.4-1.8zm29 3.2l.6-.8c-1.1-.8-2.2-1.5-3.3-2.2l-.5.8c1.1.7 2.2 1.4 3.2 2.2zM51.9 26l1-.1c-.2-1.3-.4-2.6-.8-3.9l-.9.2c.3 1.3.5 2.5.7 3.8zm-2-7.4l.9-.4c-.5-1.2-1.1-2.4-1.8-3.5l-.8.5c.7 1.1 1.2 2.2 1.7 3.4zM46.1 12l.8-.6c-.8-1-1.7-2-2.6-3l-.7.7c.8 1 1.7 1.9 2.5 2.9zm-.2 35.6l.8.6c.8-1 1.6-2.1 2.2-3.3l-.8-.5c-.7 1.1-1.4 2.2-2.2 3.2zm-5.5 5.3l.6.8c1.1-.8 2.1-1.6 3-2.5l-.7-.7c-.9.8-1.9 1.6-2.9 2.4zm-6.7 3.6l.3.9c1.2-.5 2.4-1 3.6-1.7l-.4-.8c-1.2.6-2.3 1.2-3.5 1.6zM49.8 41l.9.4c.5-1.2 1-2.5 1.3-3.7l-.9-.3c-.4 1.2-.8 2.5-1.3 3.6zm2.3-11.2c0 1.3-.1 2.6-.3 3.8l1 .1c.2-1.3.3-2.6.3-3.9h-1zM4.9 51.7l-.6.7c1 .8 2.1 1.6 3.2 2.3l.5-.8c-1.1-.6-2.2-1.4-3.1-2.2zm6.4 4.1l-.4.9c1.2.6 2.4 1 3.7 1.4l.3-.9c-1.2-.4-2.4-.9-3.6-1.4zm15 2.5l.1 1c1.3-.1 2.6-.3 3.9-.7l-.3-.9c-1.2.3-2.5.5-3.7.6zm-7.7-.3l-.2 1c1.3.2 2.6.3 3.9.4v-1c-1.2 0-2.4-.1-3.7-.4z"/><path fill="#979797" d="M13.6 19.8c2.7-2.7 6-4.1 9.9-4.1s7.2 1.4 9.9 4.1c2.7 2.7 4.1 6 4.1 9.9 0 3.5-1.2 6.6-3.5 9.2-.1.1-.2.2-.3.4s-.3.3-.3.4l-.6-.6-.1-.1c-1.2-1.2-2.6-2.1-4.1-2.7-1.6-.7-3.3-1-5.1-1-1.8 0-3.5.3-5.1 1-1.5.6-2.8 1.5-4.1 2.7l-.1.1-.5.6c-.1-.1-.2-.2-.3-.4s-.3-.3-.3-.4c-2.3-2.7-3.5-5.8-3.5-9.2-.1-3.9 1.2-7.2 4-9.9zm21.9 14.9c.6-1.4.9-2.9 1-4.6h-2v-1h2c-.1-1.7-.4-3.2-1-4.6-.5-1.2-1.3-2.5-2.4-3.8l-1.7 1.7-.4-.4-.3-.3h-.1l1.7-1.7c-1.2-1.1-2.5-2-3.8-2.5-1.4-.6-2.9-.9-4.6-1v2.4h-1v-2.2c-1.6.1-3.1.4-4.5 1-1.5.7-2.8 1.5-3.8 2.5l1.7 1.7-.4.4-.3.3-1.7-1.7c-1.1 1.2-1.9 2.5-2.4 3.8-.6 1.4-.9 2.9-1 4.6h2v1h-2c.1 1.6.4 3.1 1 4.5s1.4 2.5 2.2 3.5c2.7-2.7 5.9-4 9.8-4s7.1 1.3 9.8 4c.8-1 1.5-2.2 2.2-3.6zm-5-12.1l.1.1-4.7 5.2c.4.5.6 1.1.6 1.8 0 .8-.3 1.5-.9 2.1s-1.3.9-2.1.9c-.5 0-1.1-.2-1.7-.6l-.8.8-.7-.7.8-.8c-.4-.5-.6-1.1-.6-1.7 0-.8.3-1.5.9-2.1s1.3-.9 2.1-.9c.6 0 1.1.2 1.7.5l5.3-4.6zM22 31.1c.4.4.9.6 1.4.6.6 0 1.1-.2 1.4-.6s.6-.9.6-1.4c0-.6-.2-1.1-.6-1.4s-.8-.6-1.3-.6c-.6 0-1.1.2-1.4.6s-.6.9-.6 1.4c0 .6.2 1 .5 1.4z"/><path fill="#979797" d="M23.5 53.3C10.5 53.3 0 42.8 0 29.8S10.5 6.3 23.5 6.3 47 16.8 47 29.8 36.5 53.3 23.5 53.3zm0-46C11.1 7.3 1 17.4 1 29.8s10.1 22.5 22.5 22.5S46 42.2 46 29.8 35.9 7.3 23.5 7.3z"/></svg>
