<svg version="1.1" xmlns="http://www.w3.org/2000/svg" x="0px" y="0px" viewBox="-14 18 25 25" height="25px" width="25px">
	<path fill="#9b9b9b" d="M1.4,18.4c1.3,0.3,2.5,0.8,3.6,1.5c-0.6,1.3-0.4,2.4,0.6,3.4c0.6,0.6,1.3,0.9,2.2,0.9c0.5,0,0.9-0.1,1.2-0.2
		c0.7,1,1.2,2.2,1.5,3.6c-1.3,0.5-2,1.5-2,2.9c0,1.4,0.7,2.4,2,2.9c-0.3,1.3-0.8,2.5-1.5,3.6c-0.3-0.2-0.8-0.2-1.2-0.2
		c-0.9,0-1.6,0.3-2.2,0.9c-1,1-1.2,2.1-0.6,3.4c-1,0.7-2.2,1.2-3.6,1.5c-0.5-1.3-1.5-2-2.9-2c-1.4,0-2.4,0.7-2.9,2
		c-1.3-0.3-2.5-0.8-3.6-1.5c0.6-1.3,0.4-2.4-0.6-3.4c-0.6-0.6-1.3-0.9-2.2-0.9c-0.5,0-0.9,0.1-1.2,0.2c-0.7-1-1.2-2.2-1.5-3.6
		c1.3-0.5,2-1.5,2-2.9c0-1.4-0.7-2.4-2-2.9c0.3-1.3,0.8-2.5,1.5-3.6c0.3,0.2,0.8,0.2,1.2,0.2c0.9,0,1.6-0.3,2.2-0.9
		c1-1,1.2-2.1,0.6-3.4c1-0.7,2.2-1.2,3.6-1.5c0.5,1.3,1.5,2,2.9,2C-0.1,20.4,0.9,19.7,1.4,18.4z M-4.9,19.6
		c-0.6,0.2-1.2,0.5-1.9,0.8c0.1,0.3,0.1,0.8,0,1.5c-0.1,0.8-0.5,1.6-1.1,2.2c-0.8,0.8-1.8,1.2-2.9,1.2c-0.4,0-0.6,0-0.8-0.1
		c-0.3,0.6-0.5,1.2-0.8,1.9c0.3,0.2,0.7,0.6,1.1,1.1c0.5,0.7,0.8,1.4,0.8,2.3c0,0.8-0.2,1.6-0.8,2.3c-0.4,0.5-0.7,0.9-1.1,1.1
		c0.2,0.6,0.5,1.2,0.8,1.9c0.2,0,0.4-0.1,0.8-0.1c1.1,0,2.1,0.4,2.9,1.2c0.6,0.6,1,1.4,1.1,2.2c0.1,0.7,0.1,1.2,0,1.5
		c0.6,0.3,1.2,0.5,1.9,0.8c0.2-0.3,0.6-0.7,1.1-1.1c0.7-0.5,1.5-0.8,2.3-0.8c0.9,0,1.6,0.2,2.3,0.8c0.5,0.4,0.9,0.7,1.1,1.1
		c0.6-0.2,1.2-0.5,1.9-0.8c-0.1-0.3-0.1-0.8,0-1.5c0.1-0.8,0.5-1.6,1.1-2.2c0.8-0.8,1.8-1.2,2.9-1.2c0.4,0,0.6,0,0.8,0.1
		c0.3-0.6,0.5-1.2,0.8-1.9c-0.3-0.2-0.7-0.6-1.1-1.1c-0.5-0.7-0.8-1.5-0.8-2.3c0-0.9,0.2-1.6,0.8-2.3C8.6,27.6,9,27.2,9.3,27
		c-0.2-0.6-0.5-1.2-0.8-1.9c-0.2,0-0.4,0.1-0.8,0.1c-1.1,0-2.1-0.4-2.9-1.2c-0.6-0.6-1-1.4-1.1-2.2c-0.1-0.7-0.1-1.2,0-1.5
		c-0.6-0.3-1.2-0.5-1.9-0.8c-0.2,0.3-0.6,0.7-1.1,1.1c-0.7,0.5-1.4,0.8-2.3,0.8c-0.8,0-1.6-0.2-2.3-0.8C-4.3,20.3-4.7,19.9-4.9,19.6
		z M-5.7,26.1c1.2-1.2,2.6-1.8,4.2-1.8c1.7,0,3.1,0.6,4.2,1.8c1.2,1.2,1.8,2.6,1.8,4.2c0,1.7-0.6,3.1-1.8,4.3
		c-1.2,1.2-2.6,1.8-4.2,1.8c-1.7,0-3.1-0.6-4.2-1.8c-1.2-1.2-1.8-2.6-1.8-4.3C-7.4,28.7-6.9,27.3-5.7,26.1z M-5,33.9
		c1,1,2.2,1.5,3.5,1.5s2.6-0.5,3.5-1.5c1-1,1.5-2.2,1.5-3.5c0-1.4-0.5-2.6-1.5-3.5c-1-1-2.2-1.5-3.5-1.5S-4,25.9-5,26.9
		c-1,1-1.5,2.2-1.5,3.5C-6.4,31.8-5.9,33-5,33.9z"/>
</svg>
