<svg xmlns="http://www.w3.org/2000/svg" x="0px" y="0px" viewBox="-12 18 29 25" height="25px" width="29px">
<path fill="#9b9b9b" d="M-7.4,22.5c2.7-2.7,6-4.1,9.9-4.1s7.2,1.4,9.9,4.1c2.7,2.7,4.1,6,4.1,9.9c0,3.5-1.2,6.6-3.5,9.2
	c-0.1,0.1-0.2,0.2-0.3,0.4c-0.1,0.2-0.3,0.3-0.3,0.4l-0.6-0.6l-0.1-0.1C10.4,40.5,9,39.6,7.6,39c-1.6-0.7-3.3-1-5.1-1
	c-1.8,0-3.5,0.3-5.1,1c-1.5,0.6-2.8,1.5-4.1,2.7l-0.1,0.1l-0.6,0.6c-0.1-0.1-0.2-0.2-0.3-0.4c-0.1-0.2-0.3-0.3-0.3-0.4
	c-2.3-2.7-3.5-5.8-3.5-9.2C-11.5,28.5-10.1,25.2-7.4,22.5z M14.5,37.5c0.6-1.4,0.9-2.9,1-4.6h-2v-1h2c-0.1-1.7-0.4-3.2-1-4.6
	c-0.5-1.2-1.3-2.5-2.4-3.8l-1.7,1.7L10,24.9l-0.3-0.3H9.6l1.7-1.7c-1.2-1.1-2.5-2-3.8-2.5c-1.4-0.6-2.9-0.9-4.6-1v2.4h-1v-2.4
	c-1.6,0.1-3.1,0.4-4.5,1c-1.5,0.7-2.8,1.5-3.8,2.5l1.7,1.7L-5.1,25l-0.3,0.3l-1.7-1.7c-1.1,1.2-1.9,2.5-2.4,3.8
	c-0.6,1.4-0.9,2.9-1,4.6h2v1h-2c0.1,1.6,0.4,3.1,1,4.5c0.6,1.4,1.4,2.5,2.2,3.5c2.7-2.7,5.9-4,9.8-4s7.1,1.3,9.8,4
	C13.1,40,13.9,38.8,14.5,37.5z M9.5,25.3l0.1,0.1l-4.7,5.2c0.4,0.5,0.6,1.1,0.6,1.8c0,0.8-0.3,1.5-0.9,2.1c-0.6,0.6-1.3,0.9-2.1,0.9
	c-0.5,0-1.1-0.2-1.7-0.6L0,35.6l-0.7-0.7l0.8-0.8c-0.4-0.5-0.6-1.1-0.6-1.8c0-0.8,0.3-1.5,0.9-2.1c0.6-0.6,1.3-0.9,2.1-0.9
	c0.6,0,1.1,0.2,1.7,0.5L9.5,25.3z M1.1,33.8c0.4,0.4,0.9,0.6,1.4,0.6c0.6,0,1.1-0.2,1.4-0.6s0.6-0.9,0.6-1.4c0-0.6-0.2-1.1-0.6-1.4
	c-0.4-0.4-0.9-0.6-1.4-0.6c-0.6,0-1.1,0.2-1.4,0.6c-0.4,0.4-0.6,0.9-0.6,1.4C0.5,33,0.7,33.5,1.1,33.8z"/>
</svg>
