<svg version="1.1" xmlns="http://www.w3.org/2000/svg" width="59px" height="54.5px"><path fill="#0063AE" d="M29.5,1c12.7,0,23,10.3,23,23s-10.3,23-23,23s-23-10.3-23-23S16.8,1,29.5,1 M29.5,0c-13.3,0-24,10.7-24,24	s10.7,24,24,24s24-10.7,24-24S42.8,0,29.5,0L29.5,0z"/><path fill="none" stroke="#0063AE" stroke-miterlimit="10" stroke-dasharray="5,3" d="M49.1,2c5.8,5.5,9.4,13.4,9.4,22c0,16.5-13,30-29,30s-29-13.4-29-30c0-8.8,3.7-16.6,9.4-22"/><path fill="#0063AE" d="M43.5,17v20h-28V17H43.5z M42.5,18h-26v18h26V18z M18,16v-1h23v1H18z M20,14v-1h19v1H20z"/></svg>
