<?xml version="1.0" encoding="utf-8"?>
<!-- Generator: Adobe Illustrator 19.0.0, SVG Export Plug-In . SVG Version: 6.00 Build 0)  -->
<svg version="1.1" id="Layer_1" xmlns="http://www.w3.org/2000/svg" xmlns:xlink="http://www.w3.org/1999/xlink" x="0px" y="0px"
	 viewBox="11.9 12 48 48" style="enable-background:new 11.9 12 48 48;" xml:space="preserve">
<style type="text/css">
	.st0{fill:#5C5C5C;}
</style>
<g>
	<path class="st0" d="M42.9,32c0,0.2,0,0.7-0.1,1.2c1.5,0.4,2.7,1.2,3.7,2.5c1,1.2,1.4,2.7,1.4,4.2c0,1.9-0.7,3.6-2.1,4.9
		s-3,2.1-4.9,2.1c-2,0-3.7-0.7-5-2.1c-1.3,1.4-3,2.1-5,2.1c-1.9,0-3.6-0.7-4.9-2.1s-2.1-3-2.1-4.9c0-1.6,0.5-3,1.4-4.2
		c1-1.2,2.2-2.1,3.7-2.5c-0.1-0.6-0.1-1-0.1-1.2c0-1.9,0.7-3.6,2.1-4.9s3-2.1,4.9-2.1c1.9,0,3.6,0.7,4.9,2.1S42.9,30.1,42.9,32
		L42.9,32z M24.9,40c0,1.7,0.6,3.1,1.8,4.2c1.2,1.2,2.6,1.8,4.2,1.8c1.7,0,3.1-0.6,4.4-1.9c-0.9-1.2-1.4-2.6-1.4-4.1
		c0-0.2,0-0.7,0.1-1.2c-2.4-0.7-4-2.2-4.8-4.5c-1.2,0.3-2.3,1-3.1,2.1C25.3,37.4,24.9,38.6,24.9,40L24.9,40z M29.9,32
		c0,0.5,0,0.9,0.1,1.1c0.2,0,0.5-0.1,0.9-0.1c2,0,3.7,0.7,5,2.1c1.3-1.4,3-2.1,5-2.1c0.4,0,0.7,0,0.9,0.1c0-0.2,0.1-0.6,0.1-1.1
		c0-1.7-0.6-3.1-1.8-4.2C39,26.6,37.6,26,35.9,26c-1.7,0-3.1,0.6-4.2,1.8C30.5,28.9,29.9,30.3,29.9,32z M30.3,34.1
		c0.7,1.9,2,3.1,4,3.7c0.2-0.8,0.6-1.4,1-1.9C34,34.6,32.6,34,30.9,34c-0.1,0-0.2,0-0.3,0C30.5,34.1,30.4,34.1,30.3,34.1L30.3,34.1z
		 M35.9,43.3c0.7-1,1-2.1,1-3.3c0-0.5,0-0.9-0.1-1.1c-0.2,0-0.5,0.1-0.9,0.1c-0.4,0-0.7,0-0.9-0.1c0,0.2-0.1,0.6-0.1,1.1
		C34.9,41.2,35.2,42.3,35.9,43.3L35.9,43.3z M35.3,37.9c0.1,0,0.2,0,0.3,0c0.1,0,0.2,0,0.3,0c0.1,0,0.2,0,0.3,0c0.1,0,0.2,0,0.3,0
		c-0.2-0.6-0.5-1-0.6-1.2C35.7,36.9,35.5,37.4,35.3,37.9L35.3,37.9z M40.9,34c-1.7,0-3.1,0.6-4.4,1.9c0.4,0.5,0.8,1.1,1,1.9
		c2-0.5,3.3-1.8,4-3.7c-0.1,0-0.2,0-0.3,0C41.1,34,41,34,40.9,34L40.9,34z M36.5,44.1c1.2,1.2,2.7,1.9,4.4,1.9
		c1.7,0,3.1-0.6,4.2-1.8c1.2-1.2,1.8-2.6,1.8-4.2c0-1.4-0.4-2.6-1.2-3.7c-0.8-1.1-1.9-1.8-3.1-2.1c-0.8,2.3-2.4,3.8-4.8,4.5
		c0.1,0.6,0.1,1,0.1,1.2C37.9,41.5,37.5,42.9,36.5,44.1L36.5,44.1z"/>
</g>
<g>
	<path class="st0" d="M35.9,13c12.7,0,23,10.3,23,23s-10.3,23-23,23s-23-10.3-23-23S23.2,13,35.9,13 M35.9,12c-13.3,0-24,10.7-24,24
		s10.7,24,24,24s24-10.7,24-24S49.2,12,35.9,12L35.9,12z"/>
</g>
</svg>
