<svg xmlns="http://www.w3.org/2000/svg" viewBox="3 0 60 60">
<style type="text/css">
	.st0{fill:#9B9B9B;}
	.st1{fill:none;stroke:#9B9B9B;stroke-miterlimit:10;stroke-dasharray:5,3;}
</style>
		<path class="st0" d="M44.3,37.1C44.8,38,45,39,45,40c0,1.1-0.4,2.1-1.2,2.8C43.1,43.6,42.1,44,41,44H25c-1.1,0-2.1-0.4-2.8-1.1
			C21.4,42.1,21,41.2,21,40c0-0.9,0.2-1.9,0.8-2.9L29,24.9V17h-1v-1h1h1v1v1h3v1h-3v2h2v1h-2v2h3v1h-3v0.2l-0.1,0.2l-1,1.6H32v1
			h-3.6l-5.8,9.6c-0.8,1.5-0.8,2.8-0.1,3.9c0.6,1,1.5,1.5,2.6,1.5h16c1.2,0,2-0.5,2.6-1.4c0.2-0.4,0.4-1,0.4-1.6
			c0-0.9-0.2-1.7-0.6-2.4l-7.3-12.2L36,25.2V17v-1h1h1v1h-1v7.9L44.3,37.1z"/>
		<path class="st0" d="M42.3,37.4L37.8,30h-9.6l-4.5,7.4c-0.5,0.7-0.7,1.4-0.7,2.1c0,1.7,1,2.5,2.9,2.5H40c1.8,0,2.8-0.8,2.9-2.5
			C42.9,38.8,42.7,38.1,42.3,37.4z M41.5,40.6c-0.4,0.3-0.9,0.4-1.4,0.4H25.9c-0.8,0-1.2-0.1-1.5-0.4c-0.3-0.3-0.3-0.6-0.3-1.1
			s0.2-1,0.6-1.6l4.1-6.9h8.4l4.2,6.9c0.3,0.5,0.5,1,0.5,1.5C41.9,39.9,41.8,40.3,41.5,40.6z"/>
	<path class="st1" d="M52.3,4.5c5.7,5.4,9.2,13.1,9.2,21.6c0,16.2-12.8,29.4-28.5,29.4S4.5,42.4,4.5,26.1c0-8.6,3.6-16.3,9.2-21.6"
		/>
</svg>
