<svg version="1.1" xmlns="http://www.w3.org/2000/svg" x="0px" y="0px" width="59px" height="53.5px" viewBox="0 0 59 53.5">
<g>
	<path fill="#5C5C5C" d="M29.4,1c12.7,0,23,10.3,23,23s-10.3,23-23,23s-23-10.3-23-23S16.7,1,29.4,1 M29.4,0c-13.3,0-24,10.7-24,24
		s10.7,24,24,24s24-10.7,24-24S42.7,0,29.4,0L29.4,0z"/>
</g>
<path fill="#5C5C5C" d="M15.4,26c0-3.9,1.4-7.2,4.1-9.9s6-4.1,9.9-4.1s7.2,1.4,9.9,4.1s4.1,6,4.1,9.9c0,3.5-1.2,6.6-3.5,9.2
	c-0.1,0.1-0.2,0.2-0.3,0.4s-0.3,0.3-0.3,0.4l-0.6-0.6l-0.2-0.2c-1.2-1.2-2.6-2.1-4.1-2.7c-1.6-0.7-3.3-1-5.1-1s-3.5,0.3-5.1,1
	c-1.5,0.6-2.8,1.5-4.1,2.7L20,35.3L19.6,36c-0.1-0.1-0.2-0.2-0.3-0.4c-0.1-0.2-0.3-0.3-0.3-0.4C16.6,32.6,15.4,29.5,15.4,26L15.4,26
	z M39.2,34.6c0.8-1,1.6-2.1,2.2-3.5l0,0c0.6-1.4,0.9-2.9,1-4.6h-2v-1h2c-0.1-1.7-0.4-3.2-1-4.6c-0.5-1.2-1.3-2.5-2.4-3.8l-1.7,1.7
	l-0.4-0.4l-0.3-0.3h-0.1l1.7-1.7c-1.2-1.1-2.5-2-3.8-2.5c-1.4-0.6-2.9-0.9-4.6-1v2.4h-1V13c-1.6,0.1-3.1,0.4-4.5,1
	c-1.5,0.7-2.8,1.5-3.8,2.5l1.7,1.7l-0.4,0.4l-0.3,0.3l-1.7-1.7c-1.1,1.2-1.9,2.5-2.4,3.8c-0.6,1.4-0.9,2.9-1,4.6h2v1h-2
	c0.1,1.6,0.4,3.1,1,4.5s1.4,2.5,2.2,3.5c2.7-2.7,5.9-4,9.8-4S36.6,31.9,39.2,34.6L39.2,34.6z M36.4,18.9l0.1,0.1l-4.7,5.2
	c0.4,0.5,0.6,1.1,0.6,1.8c0,0.8-0.3,1.5-0.9,2.1c-0.6,0.6-1.3,0.9-2.1,0.9c-0.5,0-1.1-0.2-1.7-0.6l-0.8,0.8l-0.7-0.7l0.8-0.8
	c-0.4-0.5-0.6-1.1-0.6-1.8c0-0.8,0.3-1.5,0.9-2.1c0.6-0.6,1.3-0.9,2.1-0.9c0.6,0,1.1,0.2,1.7,0.5L36.4,18.9z M28,27.4
	c0.4,0.4,0.9,0.6,1.4,0.6c0.6,0,1.1-0.2,1.4-0.6s0.6-0.9,0.6-1.4c0-0.6-0.2-1.1-0.6-1.4S30,24,29.4,24s-1.1,0.2-1.4,0.6
	s-0.6,0.9-0.6,1.4C27.4,26.6,27.6,27.1,28,27.4z"/>
<path fill="none" stroke="#0063AE" stroke-miterlimit="10" stroke-dasharray="5,3" d="M49.1,1c5.8,5.5,9.4,13.4,9.4,22c0,16.5-13,30-29,30s-29-13.4-29-30c0-8.8,3.7-16.6,9.4-22"/>
</svg>
