<svg id="Layer_1" xmlns="http://www.w3.org/2000/svg" viewBox="5 3 63 55"><style>.st0{fill:#0063ae}</style><path class="st0" d="M14.2 12.6c6.1-6.1 13.6-9.2 22.3-9.2s16.1 3.1 22.3 9.2c6.1 6.1 9.2 13.6 9.2 22.3 0 7.9-2.6 14.8-7.9 20.8-.2.2-.4.5-.8.8-.3.4-.6.7-.8.8h-3.2c-5-6-11.2-9-18.8-9s-13.9 3-18.8 9h-3.2c-.2-.2-.4-.5-.8-.8-.3-.4-.6-.7-.8-.8C7.6 49.7 5 42.8 5 34.9c0-8.7 3.1-16.1 9.2-22.3zm44.1 41c4.9-5.3 7.3-11.7 7.3-19.1 0-7.9-2.9-14.7-8.6-20.4-5.6-5.6-12.5-8.4-20.5-8.4-8.1 0-14.9 2.8-20.5 8.4-5.7 5.7-8.6 12.5-8.6 20.4 0 7.4 2.4 13.8 7.3 19.1l1.4 1.4.1.1V55l1.3-1.3.1-.1c2.2-2.2 5.1-4.1 8.4-5.5S32.9 46 36.5 46c3.6 0 7 .7 10.4 2.1s6.2 3.2 8.4 5.5l.1.1 1.3 1.3v.1l.1-.1 1.5-1.4zm.8-20v2.1h4.2c-.2 3.2-.9 6.2-2.1 9.1-1.1 2.5-2.6 4.9-4.5 7-5.7-5.4-12.5-8.2-20.2-8.2-7.8 0-14.5 2.7-20.2 8.2-1.9-2.2-3.4-4.5-4.5-7-1.2-2.9-1.9-6-2.1-9.1h4v-2.2H9.6c.1-3.2.8-6.3 2.1-9.3 1.3-3 3-5.5 4.9-7.6l3.5 3.4 1.4-1.4.1-.1-3.5-3.5c1.9-1.8 4.5-3.4 7.9-4.9 3-1.2 6.1-1.9 9.3-2.1v4.8h2.1V7.9c3.4.2 6.5.9 9.4 2.1 3.1 1.3 5.7 3 7.7 4.9l-3.4 3.5 1.5 1.5 3.5-3.5c1.9 2 3.5 4.5 4.9 7.7 1.3 3 2 6.1 2.1 9.3h-4.2v.2zm-15.9 1.3c0-1.5-.4-2.8-1.3-3.9l8.9-10.7-.3-.1-10.3 9.1c-1.2-.7-2.5-1.1-3.8-1.1-1.9 0-3.5.7-4.8 2-1.3 1.3-2 2.9-2 4.8 0 1.5.4 2.8 1.3 3.9l-1.7 1.7 1.5 1.5 1.8-1.7c1.3.8 2.6 1.3 3.8 1.3 1.9 0 3.5-.7 4.8-2 1.5-1.3 2.1-2.9 2.1-4.8zm-6.7 4.5c-3 0-4.5-1.5-4.5-4.5s1.5-4.5 4.5-4.5 4.5 1.5 4.5 4.5-1.5 4.5-4.5 4.5z"/></svg>